<?xml version="1.0" encoding="UTF-8" standalone="no" ?>
<svg
    xmlns:dc="http://purl.org/dc/elements/1.1/"
    xmlns:cc="http://creativecommons.org/ns#"
    xmlns:rdf="http://www.w3.org/1999/02/22-rdf-syntax-ns#"
    xmlns:svg="http://www.w3.org/2000/svg"
    xmlns="http://www.w3.org/2000/svg"
    xmlns:sodipodi="http://sodipodi.sourceforge.net/DTD/sodipodi-0.dtd"
    xmlns:inkscape="http://www.inkscape.org/namespaces/inkscape"
    version="1.1"
    id="svg2"
    xml:space="preserve"
    width="1586.6667"
    height="568"
    viewBox="0 0 1586.6667 568"
    sodipodi:docname="PayShop.svg"
    inkscape:version="1.0.1 (0767f8302a, 2020-10-17)"
><metadata id="metadata8"><rdf:RDF><cc:Work rdf:about=""><dc:format
                >image/svg+xml</dc:format><dc:type
                    rdf:resource="http://purl.org/dc/dcmitype/StillImage"
                /><dc:title /></cc:Work></rdf:RDF></metadata><defs
        id="defs6"
    /><sodipodi:namedview
        pagecolor="#ffffff"
        bordercolor="#666666"
        borderopacity="1"
        objecttolerance="10"
        gridtolerance="10"
        guidetolerance="10"
        inkscape:pageopacity="0"
        inkscape:pageshadow="2"
        inkscape:window-width="1920"
        inkscape:window-height="1016"
        id="namedview4"
        showgrid="false"
        inkscape:zoom="0.96554617"
        inkscape:cx="793.33337"
        inkscape:cy="284"
        inkscape:window-x="0"
        inkscape:window-y="27"
        inkscape:window-maximized="1"
        inkscape:current-layer="g10"
    /><g
        id="g10"
        inkscape:groupmode="layer"
        inkscape:label="ink_ext_XXXXXX"
        transform="matrix(1.3333333,0,0,-1.3333333,0,568)"
    ><g id="g12" transform="scale(0.1)"><path
                d="m 1468.68,868.66 c -6.6,-89.48 -81.24,-160 -172.37,-160 -91.12,0 -165.77,70.52 -172.36,159.957 z m 414.81,0 c -6.6,-89.48 -81.24,-160 -172.37,-160 -91.12,0 -165.77,70.52 -172.36,159.957 z m 414.81,0 c -6.59,-89.48 -81.24,-160 -172.37,-160 -91.12,0 -165.77,70.52 -172.36,159.957 z m 414.82,0 c -6.6,-89.48 -81.25,-160 -172.37,-160 -91.12,0 -165.78,70.52 -172.37,159.957 z m 414.81,0 c -6.59,-89.48 -81.25,-160 -172.37,-160 -91.12,0 -165.77,70.52 -172.36,159.957 z m 865.25,0 v -57.078 l 211.77,53.949 v 3.129 z m 2131.54,0 29.95,-59.07 c 69.07,12.769 124.14,32.113 169.58,59.113 z m 4131.88,0 v -83.047 l 307.4,83.047 z"
                style="fill:#ee2922;fill-opacity:1;fill-rule:evenodd;stroke:none"
                id="path14"
            /><path
                d="m 1387.05,1028.66 c 49.27,-30.465 82.1,-84.972 82.1,-147.152 0,-4.336 -0.16,-8.633 -0.47,-12.891 l -344.73,0.043 c -0.32,4.215 -0.48,8.512 -0.48,12.848 0,62.18 32.83,116.687 82.11,147.132 z m 414.81,0 c 49.27,-30.465 82.1,-84.972 82.1,-147.152 0,-4.336 -0.16,-8.633 -0.47,-12.891 l -344.73,0.043 c -0.31,4.215 -0.47,8.512 -0.47,12.848 0,62.18 32.83,116.687 82.1,147.132 z m 414.81,0 c 49.27,-30.465 82.1,-84.972 82.1,-147.152 0,-4.336 -0.16,-8.633 -0.47,-12.891 l -344.73,0.043 c -0.32,4.215 -0.48,8.512 -0.48,12.848 0,62.18 32.84,116.687 82.11,147.132 z m 414.81,0 c 49.28,-30.465 82.11,-84.972 82.11,-147.152 0,-4.336 -0.16,-8.633 -0.47,-12.891 l -344.74,0.043 c -0.31,4.215 -0.47,8.512 -0.47,12.848 0,62.18 32.83,116.687 82.1,147.132 z m 414.81,0 c 49.28,-30.465 82.11,-84.972 82.11,-147.152 0,-4.336 -0.16,-8.633 -0.47,-12.891 l -344.73,0.043 c -0.32,4.215 -0.47,8.512 -0.47,12.848 0,62.18 32.82,116.687 82.1,147.132 z m 946.89,0 V 868.656 l 211.77,0.004 v 159.99 z m 2246.57,0 c -42.12,-37.754 -93.12,-59.633 -157,-77.222 l 41.97,-82.778 h 199.53 c 63.2,37.598 107.75,89.957 145.4,160.03 z m 4016.85,0 V 868.648 l 307.4,0.012 40.2,10.852 v 149.148 h -347.6"
                style="fill:#ee2922;fill-opacity:1;fill-rule:evenodd;stroke:none"
                id="path16"
            /><path
                d="m 1431.48,1188.66 c -31.67,-39.74 -80.45,-65.17 -135.17,-65.17 -54.72,0 -103.5,25.43 -135.17,65.11 z m 414.81,0 c -31.66,-39.74 -80.45,-65.17 -135.17,-65.17 -54.72,0 -103.49,25.43 -135.16,65.11 z m 414.82,0 c -31.67,-39.74 -80.45,-65.17 -135.18,-65.17 -54.72,0 -103.5,25.43 -135.16,65.11 z m 414.81,0 c -31.67,-39.74 -80.45,-65.17 -135.17,-65.17 -54.72,0 -103.5,25.43 -135.17,65.11 z m 414.81,0 c -31.67,-39.74 -80.45,-65.17 -135.17,-65.17 -54.72,0 -103.5,25.43 -135.17,65.11 z m 902.45,0 v -160 h 211.77 v 160 z m 2345.91,0 c -27.37,-74.17 -59.34,-124.25 -99.34,-160.05 l 229.9,0.05 c 24.48,45.59 46.04,98.64 67.91,159.97 z m 3917.51,0 v -160 h 347.6 v 62.63 c 0,40.55 -1.4,72.24 -4,97.32 z m -9051.02,-160 c 26.37,16.29 57.45,25.69 90.73,25.69 33.28,0 64.36,-9.4 90.74,-25.71 z m 414.81,0 c 26.37,16.29 57.45,25.69 90.73,25.69 33.28,0 64.36,-9.4 90.74,-25.71 z m 414.81,0 c 26.37,16.29 57.46,25.69 90.73,25.69 33.28,0 64.37,-9.4 90.74,-25.71 z m 414.81,0 c 26.38,16.29 57.45,25.69 90.74,25.69 33.28,0 64.36,-9.4 90.73,-25.71 z m 414.82,0 c 26.37,16.29 57.45,25.69 90.73,25.69 33.28,0 64.36,-9.4 90.73,-25.71 l -181.46,0.02"
                style="fill:#ee2922;fill-opacity:1;fill-rule:evenodd;stroke:none"
                id="path18"
            /><path
                d="m 1461.1,1348.66 c 5.23,-16.54 8.05,-34.11 8.05,-52.33 0,-40.74 -14.09,-78.18 -37.67,-107.73 l -270.34,0.06 c -23.57,29.49 -37.67,66.93 -37.67,107.67 0,18.22 2.82,35.79 8.05,52.29 z m 414.81,0 c 5.23,-16.54 8.05,-34.11 8.05,-52.33 0,-40.74 -14.09,-78.18 -37.67,-107.73 l -270.33,0.06 c -23.58,29.49 -37.67,66.93 -37.67,107.67 0,18.22 2.82,35.79 8.04,52.29 z m 414.81,0 c 5.23,-16.54 8.05,-34.11 8.05,-52.33 0,-40.74 -14.09,-78.18 -37.66,-107.73 l -270.34,0.06 c -23.58,29.49 -37.68,66.93 -37.68,107.67 0,18.22 2.83,35.79 8.05,52.29 z m 414.82,0 c 5.23,-16.54 8.05,-34.11 8.05,-52.33 0,-40.74 -14.09,-78.18 -37.67,-107.73 l -270.34,0.06 c -23.58,29.49 -37.67,66.93 -37.67,107.67 0,18.22 2.82,35.79 8.05,52.29 z m 414.81,0 c 5.23,-16.54 8.05,-34.11 8.05,-52.33 0,-40.74 -14.1,-78.18 -37.67,-107.73 l -270.34,0.06 c -23.57,29.49 -37.66,66.93 -37.66,107.67 0,18.22 2.82,35.79 8.04,52.29 z m 872.83,0 v -160 h 211.77 v 14.51 c 0,55.94 -3.99,99.89 -3.99,99.89 69.92,-53.94 153.83,-81.91 239.73,-81.91 119.35,0 214.28,45.42 281.81,127.53 z m 1069.6,0 c 49.64,-84.58 145.81,-137.5 294.89,-137.5 107.89,0 195.79,31.97 277.7,123.87 23.98,-63.93 75.92,-111.88 137.85,-135.85 l 113.87,139.85 c -4.66,3.22 -9.08,6.42 -13.28,9.59 z m 1194.44,0 c 10.4,-35.11 20.36,-71.11 29.31,-107.53 h 69.92 c -5.59,-18.7 -11.37,-36.13 -17.36,-52.41 l 198.47,-0.06 c 3.55,9.92 7.1,20.1 10.68,30.49 l 44.84,129.51 z m 700.37,0 -1.77,-3.64 c 155.83,-81.91 299.68,-129.86 447.51,-129.86 167.41,0 302.34,48.71 385.91,133.53 z m 1095.16,0 v -107.53 h 347.62 v 107.52 z m 547.4,0 v -107.53 h 347.62 v 107.53 z m 652.23,0 c 82.12,-87.1 199.08,-133.5 343.01,-133.5 124.09,0 248.17,40.75 340.61,133.57 z m 1004.22,0 v -160.01 l 343.6,0.01 c -2.7,26.76 -6.8,46.01 -12,60.46 48,-19.98 99.9,-33.96 161.8,-33.96 132.8,0 238.6,43.82 312.9,133.45 l -806.3,0.05"
                style="fill:#ee2922;fill-opacity:1;fill-rule:evenodd;stroke:none"
                id="path20"
            /><path
                d="m 3993.18,1508.66 v -160 h 729.32 c 35.77,43.5 63.84,97.28 83.79,160.04 l -236.34,-0.04 c -33.83,-77.09 -91.88,-113.69 -177.2,-113.69 -65.93,0 -135.86,37.96 -187.8,89.91 v 23.78 z m 1028.9,0 c 0.85,-60.24 14.08,-114.68 40.7,-160.02 l 811.03,0.02 c -53.58,40.48 -70.57,78.74 -74.08,160 h -217.77 l -0.53,-31.78 c -43.95,-63.93 -111.88,-105.89 -181.8,-105.89 -82.21,0 -132.96,52.42 -139.2,137.65 z m 1183.99,0 c 16.54,-49.49 34.4,-103.55 51.15,-160.03 l 335.86,0.03 55.39,159.99 -202.01,0.01 c -11.56,-43.61 -19.19,-74.17 -20.09,-77.73 -1.71,6.86 -9.32,38.78 -18.71,77.72 z m 828.97,0 -77.45,-160 h 831.65 c 43.49,44.17 73.06,98.08 86.06,160 h -364.12 c -17.56,-24.5 -52.86,-43.77 -95.86,-43.77 -46.96,0 -107.93,19.11 -166.66,43.81 z m 1017.71,0 v -160 h 347.62 v 160 z m 547.4,0 v -160 h 347.62 v 160 z m 556.2,0 c 22.67,-62.97 55,-116.58 96.02,-160.06 l 683.63,0.06 c 42.03,42.26 77.5,95.22 103.5,160 h -361.24 c -16.85,-34.83 -41.11,-49.76 -74.87,-49.76 -41.73,0 -67.84,15.97 -84.07,49.76 z m 1100.25,0 v -160 h 806.3 c 35.5,42.78 63.8,96.07 84.4,160.04 l -395.4,-0.04 c -23.1,-17.29 -51.2,-19.79 -81.8,-19.79 -27.8,0 -51.7,8.07 -61.5,19.79 z m -9125.08,-160 c 22.16,69.86 87.56,120.52 164.79,120.52 77.24,0 142.64,-50.66 164.79,-120.56 z m 414.81,0 c 22.16,69.86 87.56,120.52 164.79,120.52 77.24,0 142.63,-50.66 164.79,-120.56 z m 414.81,0 c 22.16,69.86 87.56,120.52 164.79,120.52 77.24,0 142.64,-50.66 164.79,-120.56 z m 414.82,0 c 22.15,69.86 87.56,120.52 164.79,120.52 77.23,0 142.63,-50.66 164.79,-120.56 z m 414.81,0 c 22.16,69.86 87.56,120.52 164.79,120.52 77.23,0 142.64,-50.66 164.79,-120.56 l -329.58,0.04"
                style="fill:#ee2922;fill-opacity:1;fill-rule:evenodd;stroke:none"
                id="path22"
            /><path
                d="m 1463.89,1668.66 c -18.92,-74.89 -86.77,-130.35 -167.58,-130.35 -80.8,0 -148.65,55.46 -167.58,130.38 z m 414.82,0 c -18.93,-74.89 -86.78,-130.35 -167.59,-130.35 -80.8,0 -148.65,55.46 -167.58,130.38 z m 414.81,0 c -18.93,-74.89 -86.78,-130.35 -167.59,-130.35 -80.8,0 -148.65,55.46 -167.58,130.38 z m 414.81,0 c -18.92,-74.89 -86.78,-130.35 -167.58,-130.35 -80.81,0 -148.66,55.46 -167.59,130.38 z m 414.81,0 c -18.92,-74.89 -86.77,-130.35 -167.58,-130.35 -80.81,0 -148.65,55.46 -167.58,130.38 z m 870.04,0 v -160 h 211.77 v 159.99 z m 610.81,0 c -4.66,-65.43 -15.85,-118.59 -34.04,-160.03 l 236.34,0.03 c 15.33,48.24 25.85,101.74 31.39,159.96 z m 450.71,0 c -21.63,-43.98 -32.66,-95.27 -32.66,-153.82 0,-2.06 0.01,-4.11 0.04,-6.16 l 238.35,-0.02 c -0.43,5.89 -0.64,11.95 -0.64,18.17 0,62.62 15.8,109.9 57.75,141.85 z m 529.93,0 -2.67,-160 h 217.77 c -0.81,18.86 -0.89,40.05 -0.54,64.12 l 1.32,95.88 z m 567.6,0 38.4,-113.86 c 4.96,-14.87 10.13,-30.28 15.44,-46.16 l 201.59,0.02 c -12.48,51.72 -28.11,115.83 -37.23,150.03 l -3.01,9.97 z m 339.08,0 c -17.03,-57 -33,-115.35 -44.85,-160.03 l 202.01,0.03 55.39,159.99 z m 744.33,0 c 5.83,-1.4 11.78,-2.73 17.86,-3.98 l 133.85,-27.97 c 101.89,-21.98 135.85,-37.96 135.85,-93.9 0,-11.6 -4.29,-23.39 -12.02,-34.17 l 364.12,0.02 c 4.96,23.58 7.5,48.31 7.5,74.11 0,30.89 -2.69,59.53 -8.32,85.93 z m 817.11,0 v -160 h 347.62 v 160 z m 547.4,0 v -160 h 347.62 v 160 z m 521.66,0 c 5.63,-58.51 17.28,-111.95 34.54,-159.93 l 362.97,-0.07 c -16.49,34.31 -22.78,87 -24.89,160 z m 586.42,0 c -4.37,-74.67 -13.73,-126.57 -29.97,-160.06 l 361.24,0.06 c 18.8,46.97 32.7,100.16 40.4,159.98 z m 548.37,0 v -159.99 l 352,-0.01 c -2.2,2.56 -3.7,5.31 -4.4,8.18 v 151.82 z m 554.8,0 c -8.8,-93.07 -30.3,-138.26 -59.5,-160.02 l 395.4,0.02 c 15.3,47.46 26.3,100.75 32.9,159.99 z m -3562.74,-160 c -68.7,28.92 -134.36,65.48 -170.97,88.09 l -42.65,-88.09 h 213.62"
                style="fill:#ee2922;fill-opacity:1;fill-rule:evenodd;stroke:none"
                id="path24"
            /><path
                d="m 1423.08,1828.66 c 28.59,-30.84 46.07,-72.13 46.07,-117.5 0,-14.66 -1.82,-28.88 -5.26,-42.47 l -335.16,-0.03 c -3.43,13.62 -5.26,27.84 -5.26,42.5 0,45.37 17.48,86.66 46.08,117.49 z m 414.81,0 c 28.59,-30.84 46.07,-72.13 46.07,-117.5 0,-14.66 -1.82,-28.88 -5.25,-42.47 l -335.17,-0.03 c -3.43,13.62 -5.25,27.84 -5.25,42.5 0,45.37 17.48,86.66 46.07,117.49 z m 414.81,0 c 28.59,-30.84 46.07,-72.13 46.07,-117.5 0,-14.66 -1.82,-28.88 -5.25,-42.47 l -335.17,-0.03 c -3.43,13.62 -5.26,27.84 -5.26,42.5 0,45.37 17.48,86.66 46.08,117.49 z m 414.82,0 c 28.59,-30.84 46.07,-72.13 46.07,-117.5 0,-14.66 -1.82,-28.88 -5.26,-42.47 l -335.17,-0.03 c -3.43,13.62 -5.25,27.84 -5.25,42.5 0,45.37 17.48,86.66 46.07,117.49 z m 414.81,0 c 28.59,-30.84 46.07,-72.13 46.07,-117.5 0,-14.66 -1.82,-28.88 -5.26,-42.47 l -335.16,-0.03 c -3.43,13.62 -5.25,27.84 -5.25,42.5 0,45.37 17.47,86.66 46.07,117.49 z m 910.85,0 v -160 h 211.77 v 160 z m 610.89,0 c 1.67,-26.14 2.44,-54.19 2.44,-84.07 0,-26.93 -0.83,-52.23 -2.52,-75.91 l 233.69,-0.02 c 3.04,31.89 4.57,65.24 4.57,99.91 0,20.69 -0.61,40.7 -1.81,60.02 z m 648.29,0 c -94.6,-32.43 -161.2,-85.83 -197.66,-160 h 262.84 c 43.7,33.32 115.79,49.97 227.93,49.97 15.98,0 39.96,-2 39.96,-2 l -0.8,-47.97 h 215.88 l 2.21,160 z m 845.92,0 53.95,-160 h 215.19 l -48.31,159.99 z m 442.03,0 -38.02,-124.02 c -3.68,-11.84 -7.36,-23.89 -10.98,-36 l 212.56,0.02 55.39,159.99 z m 491.89,0 c 30.87,-78.33 97.3,-134.04 203.44,-159.97 l 638.85,-0.03 c -14.55,68.3 -48.7,121.56 -106.55,160.05 z m 1020.55,0 v -160 h 347.62 v 160 z m 547.4,0 v -160 h 347.62 v 159.99 z m 521.57,0 c -2.52,-24.64 -3.8,-50.03 -3.8,-76.07 0,-29.02 1.31,-56.98 3.89,-83.86 l 372.62,-0.07 c -0.68,23.8 -0.92,49.75 -0.92,77.93 0,30.07 0.5,57.36 1.49,82.09 z m 589.23,0 c 0.21,-11.5 0.32,-23.53 0.32,-36.12 0,-46.87 -0.95,-88 -3.04,-123.87 l 371.67,-0.01 c 4.5,35.58 7,73.53 7,113.9 0,15.8 -0.4,31.19 -1.2,46.17 z m 545.65,0 v -160 h 347.6 v 160 z m 558.8,0 c 0.4,-15.87 0.6,-32.56 0.6,-50.1 0,-42.52 -1.6,-78.83 -4.6,-109.83 l 368.8,-0.07 c 4.9,43.41 7.4,90.02 7.4,139.87 0,6.6 -0.1,13.32 -0.2,20.15 l -372,-0.02"
                style="fill:#ee2922;fill-opacity:1;fill-rule:evenodd;stroke:none"
                id="path26"
            /><path
                d="m 1052.86,2148.66 c 0.97,-7.39 1.48,-14.98 1.48,-22.68 0,-95.46 -77.383,-172.84 -172.84,-172.84 -95.457,0 -172.84,77.38 -172.84,172.84 0,7.7 0.504,15.29 1.481,22.72 z m 414.81,0 c 0.97,-7.39 1.48,-14.98 1.48,-22.68 0,-95.46 -77.38,-172.84 -172.84,-172.84 -95.45,0 -172.84,77.38 -172.84,172.84 0,7.7 0.51,15.29 1.48,22.72 z m 414.81,0 c 0.98,-7.39 1.48,-14.98 1.48,-22.68 0,-95.46 -77.38,-172.84 -172.84,-172.84 -95.45,0 -172.83,77.38 -172.83,172.84 0,7.7 0.5,15.29 1.48,22.72 z m 414.81,0 c 0.98,-7.39 1.48,-14.98 1.48,-22.68 0,-95.46 -77.38,-172.84 -172.84,-172.84 -95.45,0 -172.84,77.38 -172.84,172.84 0,7.7 0.51,15.29 1.48,22.72 z m 414.82,0 c 0.98,-7.39 1.48,-14.98 1.48,-22.68 0,-95.46 -77.38,-172.84 -172.84,-172.84 -95.46,0 -172.84,77.38 -172.84,172.84 0,7.7 0.5,15.29 1.48,22.72 z m 414.81,0 c 0.97,-7.39 1.48,-14.98 1.48,-22.68 0,-95.46 -77.38,-172.84 -172.84,-172.84 -95.46,0 -172.83,77.38 -172.83,172.84 0,7.7 0.5,15.29 1.47,22.72 z m 414.81,0 c 0.98,-7.39 1.48,-14.98 1.48,-22.68 0,-95.46 -77.38,-172.84 -172.83,-172.84 -95.47,0 -172.84,77.38 -172.84,172.84 0,7.7 0.5,15.29 1.48,22.72 z m 445.5,0 c 4.08,-40.84 5.95,-88.06 5.95,-158.32 v -161.68 h 211.77 v 159.68 c 59.93,67.93 133.86,103.89 213.76,103.89 124.81,0 174.42,-91.75 185.36,-263.51 l 236.37,-0.06 c -8.82,141.88 -49.16,247.38 -108.79,319.98 z m 1076.35,0 c -4.5,-2.79 -9.03,-5.61 -13.57,-8.48 l 97.89,-157.83 c 0,0 155.83,115.88 301.67,115.88 119.87,0 139.85,-61.94 139.85,-177.82 v -53.94 h -67.92 c -105.86,0 -195.89,-12.61 -269.14,-37.76 l 550.36,-0.05 0.47,33.81 c 2,149.85 2,203.79 -15.98,247.74 -5.45,13.62 -11.85,26.45 -19.19,38.47 z m 926.78,0 107.92,-320 h 220.83 l -96.62,320 z m 648.05,0 -98.1,-320 h 218.95 l 110.78,319.99 z m 437.84,0 c -41.74,-55.26 -64.49,-123.84 -64.49,-202.28 0,-43.3 6.69,-82.73 20.44,-117.65 l 735.74,-0.07 c -36.94,24.63 -83.53,43.19 -140.85,55.79 l -127.86,27.97 c -83.91,17.98 -107.89,45.95 -107.89,81.92 0,33.96 35.97,57.93 89.91,57.93 67.92,0 151.83,-21.97 253.72,-75.92 l 86.15,172.31 z m 976.5,0 v -320 h 347.62 v 133.71 c 27.97,29.97 77.91,63.93 121.87,63.93 73.91,0 77.91,-23.97 77.91,-107.89 v -89.75 h 347.62 v 167.67 c 0,62.34 -9.33,112.35 -25.83,152.31 z m 1203.32,0 c -74.09,-80.78 -121.16,-190.65 -134.35,-319.95 l 373.28,-0.05 c 7.46,185.61 42.93,227.61 106.39,227.61 76.9,0 106.26,-51.07 109.56,-227.61 h 374.75 c -7.3,140.3 -48.2,245.27 -111.09,319.97 z m 986.03,0 c 11.4,-80.38 14.5,-163.2 14.5,-252.22 v -67.78 h 347.6 v 149.69 c 18,27.97 51.9,51.95 107.9,51.95 81.9,0 100.3,-71.48 103.3,-201.68 l 372,0.04 c -1.7,100.54 -17.1,224.63 -81.6,319.96 z m -9072.55,-320 c 31.56,34.04 76.67,55.34 126.76,55.34 50.09,0 95.2,-21.3 126.77,-55.35 z m 414.81,0 c 31.56,34.04 76.68,55.34 126.76,55.34 50.09,0 95.2,-21.3 126.77,-55.35 z m 414.81,0 c 31.56,34.04 76.68,55.34 126.76,55.34 50.09,0 95.21,-21.3 126.77,-55.35 z m 414.81,0 c 31.57,34.04 76.68,55.34 126.77,55.34 50.09,0 95.2,-21.3 126.77,-55.35 z m 414.82,0 c 31.56,34.04 76.67,55.34 126.76,55.34 50.09,0 95.2,-21.3 126.77,-55.35 l -253.53,0.01"
                style="fill:#ee2922;fill-opacity:1;fill-rule:evenodd;stroke:none"
                id="path28"
            /><path
                d="m 1020.6,2228.66 c 16.95,-23.01 28.36,-50.3 32.26,-79.95 l -342.719,-0.05 c 3.894,29.7 15.304,56.98 32.254,79.93 z m 414.81,0 c 16.96,-23.01 28.36,-50.3 32.26,-79.95 l -342.72,-0.05 c 3.9,29.7 15.31,56.98 32.26,79.93 z m 414.82,0 c 16.95,-23.01 28.36,-50.3 32.25,-79.95 l -342.71,-0.05 c 3.89,29.7 15.3,56.98 32.25,79.93 z m 414.81,0 c 16.95,-23.01 28.36,-50.3 32.25,-79.95 l -342.71,-0.05 c 3.89,29.7 15.3,56.98 32.25,79.93 z m 414.81,0 c 16.95,-23.01 28.36,-50.3 32.26,-79.95 l -342.72,-0.05 c 3.89,29.7 15.3,56.98 32.25,79.93 z m 414.81,0 c 16.95,-23.01 28.36,-50.3 32.26,-79.95 l -342.72,-0.05 c 3.9,29.7 15.31,56.98 32.26,79.93 z m 414.82,0 c 16.95,-23.01 28.36,-50.3 32.25,-79.95 l -342.71,-0.05 c 3.89,29.7 15.3,56.98 32.25,79.93 z m 466.22,0 c 4.94,-27.22 8.75,-52.12 11.53,-79.96 l 744.42,-0.04 c -27.62,33.62 -59.38,60.19 -94.06,80.05 l -357.08,-0.05 c -34.14,-19.13 -64.58,-44.07 -89.55,-74.5 -1.03,32.13 -2.6,55.12 -5.27,74.55 z m 1243.77,0 c -50.41,-20.02 -101.56,-46.52 -155.89,-80.02 l 704.44,0.02 c -20,32.77 -46.93,59.51 -80.4,80 z m 743.91,0 26.98,-79.99 232.13,-0.01 -24.15,80 z m 699.55,0 -24.52,-80 h 231.63 l 27.7,80 z m 501.24,0 c -34.88,-22 -64.4,-48.89 -87.91,-80 h 744.86 l 21.73,43.47 c -25.96,11.42 -52.19,24.05 -80.37,36.5 z m 888.58,0 v -80 h 869.19 c -13.7,33.16 -32.34,59.41 -54.67,80.02 l -459.2,-0.02 c -3.32,-2.83 -6.55,-5.66 -9.7,-8.57 0,2.88 0.04,5.73 0.1,8.59 z m 1300.52,0 c -36.14,-21.98 -68.67,-48.8 -97.2,-79.93 l 718.54,-0.07 c -27.04,32.09 -58.13,58.62 -92.37,79.94 z m 874.43,0 c 5.8,-26.51 10.6,-53.13 14.4,-80.03 l 863.7,0.03 c -20.4,30.05 -45.6,57.27 -76.9,79.99 l -442.9,0.01 c -8.9,-8.29 -15.6,-16.6 -19.8,-24.55 -1,8.21 -2.3,16.42 -3.8,24.56 l -334.7,-0.01"
                style="fill:#ee2922;fill-opacity:1;fill-rule:evenodd;stroke:none"
                id="path30"
            /><path
                d="m 8052.75,2308.66 v -80 h 345.72 c 0.39,19.02 1.9,38.89 1.9,75.34 v 4.66 z m -7310.352,-80 c 31.477,42.54 82.063,70.17 139.102,70.17 57.039,0 107.625,-27.63 139.1,-70.24 z m 414.812,0 c 31.48,42.54 82.06,70.17 139.1,70.17 57.04,0 107.63,-27.63 139.1,-70.24 z m 414.81,0 c 31.48,42.54 82.07,70.17 139.1,70.17 57.04,0 107.63,-27.63 139.11,-70.24 z m 414.81,0 c 31.48,42.54 82.07,70.17 139.1,70.17 57.04,0 107.63,-27.63 139.11,-70.24 z m 414.81,0 c 31.49,42.54 82.07,70.17 139.11,70.17 57.04,0 107.62,-27.63 139.1,-70.24 z m 414.82,0 c 31.48,42.54 82.06,70.17 139.1,70.17 57.04,0 107.62,-27.63 139.1,-70.24 z m 414.81,0 c 31.48,42.54 82.06,70.17 139.11,70.17 57.03,0 107.62,-27.63 139.09,-70.24 z m 954.42,0 c -2.48,18.07 -5.9,33.03 -10.71,49.37 l -201.77,-35.96 c 0.86,-4.55 1.68,-9.01 2.49,-13.41 z m 451.89,0 c -53.51,30.7 -113.97,45.38 -176.91,45.38 -64.54,0 -126.86,-15.59 -180.16,-45.41 z m 1050.03,0 c -53.28,32.6 -123.16,49.37 -208.07,49.37 -92.41,0 -175.19,-15.54 -260.07,-49.32 z m 510.73,0 -13.71,45.38 -223.75,-37.96 2.5,-7.43 z m 699.41,0 8.1,23.4 h -235.74 l -7.18,-23.4 z m 864.73,0 c -80.26,35.43 -176.36,69.35 -327.18,69.35 -108.51,0 -200.72,-24.79 -271.13,-69.3 z m 1104.79,0 c -58.51,54.03 -142.36,69.35 -229.16,69.35 -105.11,0 -178.47,-26.45 -230.04,-69.41 z m 1014.97,0 c -76.69,47.7 -169.1,69.35 -266.86,69.35 -100.13,0 -188.59,-24.65 -262.11,-69.35 z m 680.16,0 c -4.4,23.57 -10.7,46.57 -18.1,67.35 l -319.7,-53.94 c 1.1,-4.47 2.1,-8.95 3.1,-13.43 z m 466.5,0 c -58.7,42.61 -138.5,69.35 -246.9,69.35 -81,0 -158,-34.13 -196,-69.4 l 442.9,0.05"
                style="fill:#ee2922;fill-opacity:1;fill-rule:evenodd;stroke:none"
                id="path32"
            /><path
                d="m 1468.98,2548.66 c 0.11,-2.62 0.17,-5.23 0.17,-7.85 0,-95.46 -77.38,-172.84 -172.84,-172.84 -95.45,0 -172.84,77.38 -172.84,172.84 0,2.62 0.06,5.23 0.18,7.83 z m 414.81,0 c 0.11,-2.62 0.17,-5.23 0.17,-7.85 0,-95.46 -77.38,-172.84 -172.84,-172.84 -95.45,0 -172.83,77.38 -172.83,172.84 0,2.62 0.05,5.23 0.17,7.83 z m 414.81,0 c 0.11,-2.62 0.17,-5.23 0.17,-7.85 0,-95.46 -77.38,-172.84 -172.84,-172.84 -95.45,0 -172.84,77.38 -172.84,172.84 0,2.62 0.07,5.23 0.18,7.83 z m 414.81,0 c 0.12,-2.62 0.18,-5.23 0.18,-7.85 0,-95.46 -77.38,-172.84 -172.84,-172.84 -95.46,0 -172.84,77.38 -172.84,172.84 0,2.62 0.06,5.23 0.17,7.83 z m 414.82,0 c 0.11,-2.62 0.17,-5.23 0.17,-7.85 0,-95.46 -77.38,-172.84 -172.84,-172.84 -95.46,0 -172.83,77.38 -172.83,172.84 0,2.62 0.05,5.23 0.17,7.83 z m 4916.64,0 c 5.79,-53.75 7.88,-111.19 7.88,-154.75 v -85.26 l 347.62,0.01 v 159.17 c 0,27.26 -0.6,54.31 -1.94,80.85 l -353.56,-0.02"
                style="fill:#ee2922;fill-opacity:1;fill-rule:evenodd;stroke:none"
                id="path34"
            /><path
                d="m 1123.65,2548.66 c 4.09,91.8 79.83,165 172.66,165 92.84,0 168.58,-73.2 172.67,-165.02 z m 414.81,0 c 4.09,91.8 79.83,165 172.66,165 92.84,0 168.58,-73.2 172.67,-165.02 z m 414.81,0 c 4.09,91.8 79.83,165 172.66,165 92.84,0 168.58,-73.2 172.67,-165.02 z m 414.81,0 c 4.09,91.8 79.83,165 172.67,165 92.83,0 168.57,-73.2 172.66,-165.02 z m 414.82,0 c 4.09,91.8 79.83,165 172.66,165 92.83,0 168.58,-73.2 172.67,-165.02 z m 5615.53,0 c -2.87,57.13 -9.13,111.81 -20.04,160.91 l -351.61,-59.93 c 8.2,-27.9 14.04,-63.55 18.09,-101 z m -6030.52,406.98 c 0,95.45 77.38,172.84 172.84,172.84 95.46,0 172.84,-77.39 172.84,-172.84 0,-95.46 -77.38,-172.85 -172.84,-172.85 -95.46,0 -172.84,77.39 -172.84,172.85 z m -414.82,0 c 0,95.45 77.39,172.84 172.84,172.84 95.46,0 172.84,-77.39 172.84,-172.84 0,-95.46 -77.38,-172.85 -172.84,-172.85 -95.45,0 -172.84,77.39 -172.84,172.85 z m -414.8,0 c 0,95.45 77.38,172.84 172.83,172.84 95.46,0 172.84,-77.39 172.84,-172.84 0,-95.46 -77.38,-172.85 -172.84,-172.85 -95.45,0 -172.83,77.39 -172.83,172.85 z m 414.8,414.82 c 0,95.46 77.39,172.84 172.84,172.84 95.46,0 172.84,-77.38 172.84,-172.84 0,-95.46 -77.38,-172.84 -172.84,-172.84 -95.45,0 -172.84,77.38 -172.84,172.84"
                style="fill:#ee2922;fill-opacity:1;fill-rule:evenodd;stroke:none"
                id="path36"
            /></g></g></svg>
